<svg id="SvgjsSvg1013" width="288" height="288" xmlns="http://www.w3.org/2000/svg" version="1.1" xmlns:xlink="http://www.w3.org/1999/xlink" xmlns:svgjs="http://svgjs.com/svgjs"><defs id="SvgjsDefs1014"></defs><g id="SvgjsG1015"><svg xmlns="http://www.w3.org/2000/svg" viewBox="0 0 64 64" width="288" height="288"><path d="M49,62H15a7.008,7.008,0,0,1-7-7V9a7.008,7.008,0,0,1,7-7H49a7.008,7.008,0,0,1,7,7V55A7.008,7.008,0,0,1,49,62ZM15,4a5.006,5.006,0,0,0-5,5V55a5.006,5.006,0,0,0,5,5H49a5.006,5.006,0,0,0,5-5V9a5.006,5.006,0,0,0-5-5Z" fill="#cf4f74" class="color000 svgShape"></path><path d="M35 58H29a3 3 0 01-3-3V51a3 3 0 013-3h6a3 3 0 013 3v4A3 3 0 0135 58zm-6-8a1 1 0 00-1 1v4a1 1 0 001 1h6a1 1 0 001-1V51a1 1 0 00-1-1zM21 58H15a3 3 0 01-3-3V51a3 3 0 013-3h6a3 3 0 013 3v4A3 3 0 0121 58zm-6-8a1 1 0 00-1 1v4a1 1 0 001 1h6a1 1 0 001-1V51a1 1 0 00-1-1zM49 58H43a3 3 0 01-3-3V39a3 3 0 013-3h6a3 3 0 013 3V55A3 3 0 0149 58zM43 38a1 1 0 00-1 1V55a1 1 0 001 1h6a1 1 0 001-1V39a1 1 0 00-1-1zM35 46H29a3 3 0 01-3-3V39a3 3 0 013-3h6a3 3 0 013 3v4A3 3 0 0135 46zm-6-8a1 1 0 00-1 1v4a1 1 0 001 1h6a1 1 0 001-1V39a1 1 0 00-1-1zM21 46H15a3 3 0 01-3-3V39a3 3 0 013-3h6a3 3 0 013 3v4A3 3 0 0121 46zm-6-8a1 1 0 00-1 1v4a1 1 0 001 1h6a1 1 0 001-1V39a1 1 0 00-1-1zM35 34H29a3 3 0 01-3-3V27a3 3 0 013-3h6a3 3 0 013 3v4A3 3 0 0135 34zm-6-8a1 1 0 00-1 1v4a1 1 0 001 1h6a1 1 0 001-1V27a1 1 0 00-1-1zM21 34H15a3 3 0 01-3-3V27a3 3 0 013-3h6a3 3 0 013 3v4A3 3 0 0121 34zm-6-8a1 1 0 00-1 1v4a1 1 0 001 1h6a1 1 0 001-1V27a1 1 0 00-1-1zM49 34H43a3 3 0 01-3-3V27a3 3 0 013-3h6a3 3 0 013 3v4A3 3 0 0149 34zm-6-8a1 1 0 00-1 1v4a1 1 0 001 1h6a1 1 0 001-1V27a1 1 0 00-1-1zM49 20H15a3 3 0 01-3-3V9a3 3 0 013-3H49a3 3 0 013 3v8A3 3 0 0149 20zM15 8a1 1 0 00-1 1v8a1 1 0 001 1H49a1 1 0 001-1V9a1 1 0 00-1-1z" fill="#cf4f74" class="color000 svgShape"></path><path d="M46,17a3,3,0,0,1-3-3V12a3,3,0,0,1,6,0v2A3,3,0,0,1,46,17Zm0-6a1,1,0,0,0-1,1v2a1,1,0,0,0,2,0V12A1,1,0,0,0,46,11Z" fill="#cf4f74" class="color000 svgShape"></path></svg></g></svg>