<?xml version="1.0" encoding="iso-8859-1"?>
<!-- Generator: Adobe Illustrator 19.0.0, SVG Export Plug-In . SVG Version: 6.00 Build 0)  -->
<svg version="1.1" id="Layer_1" xmlns="http://www.w3.org/2000/svg" xmlns:xlink="http://www.w3.org/1999/xlink" x="0px" y="0px"
	 viewBox="0 0 512 512" style="enable-background:new 0 0 512 512;" xml:space="preserve">
<g>
	<g>
		<path d="M469.333,51.2H42.667C19.114,51.228,0.028,70.314,0,93.867v324.267c0.028,23.553,19.114,42.639,42.667,42.667h426.667
			c23.553-0.028,42.639-19.114,42.667-42.667V93.867C511.972,70.314,492.886,51.228,469.333,51.2z M494.933,418.133
			c-0.015,14.132-11.468,25.585-25.6,25.6H42.667c-14.132-0.015-25.585-11.468-25.6-25.6V93.867
			c0.015-14.132,11.468-25.585,25.6-25.6h426.667c14.132,0.015,25.585,11.468,25.6,25.6V418.133z"/>
	</g>
</g>
<g>
	<g>
		<path d="M443.733,93.867H68.267c-14.132,0.015-25.585,11.468-25.6,25.6v204.8c0.032,9.701,5.557,18.547,14.26,22.833
			c-13.548,27.473-2.26,60.727,25.213,74.275c27.473,13.548,60.727,2.26,74.275-25.213c7.155-14.508,7.619-31.417,1.271-46.295
			h196.631c-12.023,28.176,1.071,60.763,29.247,72.786c28.176,12.023,60.763-1.071,72.786-29.247
			c6.351-14.883,5.886-31.797-1.273-46.309c8.701-4.286,14.224-13.131,14.255-22.83v-204.8
			C469.318,105.335,457.865,93.882,443.733,93.867z M131.082,400.848c-6.876,5.662-15.508,8.756-24.416,8.752
			c-21.208,0.011-38.409-17.172-38.42-38.38c-0.011-21.208,17.172-38.409,38.38-38.42c11.472-0.006,22.345,5.117,29.644,13.967
			l0.044,0.053C149.789,363.185,147.447,387.374,131.082,400.848z M429.749,400.848c-6.876,5.662-15.508,8.756-24.416,8.752
			c-21.208,0.011-38.409-17.172-38.42-38.38c-0.011-21.208,17.172-38.409,38.38-38.42c11.472-0.006,22.345,5.117,29.644,13.967
			l0.044,0.053C448.456,363.185,446.113,387.374,429.749,400.848z M452.267,324.267c-0.006,4.136-2.971,7.674-7.042,8.404
			c-0.216-0.225-0.457-0.417-0.677-0.638c-0.618-0.622-1.263-1.205-1.906-1.795c-0.805-0.738-1.616-1.462-2.46-2.147
			c-0.674-0.548-1.365-1.067-2.061-1.581c-0.877-0.646-1.766-1.268-2.679-1.859c-0.717-0.465-1.44-0.914-2.176-1.344
			c-0.949-0.554-1.914-1.07-2.894-1.566c-0.748-0.379-1.493-0.755-2.259-1.098c-1.026-0.461-2.071-0.871-3.124-1.269
			c-0.76-0.287-1.514-0.586-2.287-0.84c-1.113-0.366-2.249-0.664-3.388-0.958c-0.748-0.194-1.486-0.414-2.245-0.577
			c-1.268-0.272-2.557-0.459-3.848-0.642c-0.653-0.093-1.295-0.228-1.954-0.297c-3.948-0.436-7.932-0.435-11.879,0.001
			c-0.661,0.07-1.306,0.206-1.963,0.299c-1.29,0.184-2.578,0.368-3.844,0.641c-0.774,0.166-1.528,0.393-2.293,0.592
			c-1.119,0.291-2.236,0.582-3.332,0.942c-0.804,0.264-1.586,0.576-2.376,0.876c-1.019,0.388-2.034,0.781-3.028,1.229
			c-0.799,0.36-1.578,0.755-2.359,1.152c-0.944,0.48-1.877,0.975-2.791,1.509c-0.768,0.448-1.518,0.919-2.265,1.405
			c-0.885,0.576-1.753,1.178-2.604,1.805c-0.713,0.525-1.414,1.06-2.102,1.62c-0.846,0.689-1.662,1.413-2.469,2.154
			c-0.624,0.574-1.248,1.144-1.847,1.749c-0.263,0.265-0.552,0.497-0.81,0.767H146.692c-0.259-0.272-0.55-0.505-0.814-0.771
			c-0.573-0.577-1.168-1.121-1.764-1.67c-0.846-0.78-1.702-1.54-2.591-2.262c-0.648-0.527-1.308-1.029-1.978-1.524
			c-0.899-0.665-1.816-1.301-2.75-1.908c-0.704-0.457-1.413-0.902-2.136-1.326c-0.958-0.561-1.934-1.08-2.923-1.582
			c-0.745-0.378-1.489-0.756-2.25-1.099c-1.027-0.464-2.074-0.871-3.13-1.271c-0.763-0.289-1.517-0.59-2.292-0.845
			c-1.114-0.366-2.25-0.664-3.388-0.959c-0.751-0.195-1.491-0.417-2.253-0.581c-1.268-0.273-2.56-0.459-3.853-0.643
			c-0.655-0.093-1.298-0.228-1.958-0.299c-3.948-0.437-7.932-0.437-11.88-0.001c-0.66,0.07-1.303,0.204-1.958,0.297
			c-1.289,0.183-2.575,0.369-3.84,0.64c-0.771,0.165-1.522,0.389-2.283,0.586c-1.12,0.291-2.236,0.582-3.332,0.942
			c-0.801,0.263-1.581,0.571-2.367,0.869c-1.019,0.387-2.032,0.782-3.024,1.228c-0.801,0.36-1.583,0.753-2.366,1.15
			c-0.934,0.475-1.857,0.966-2.763,1.493c-0.781,0.455-1.546,0.93-2.304,1.423c-0.861,0.56-1.702,1.146-2.531,1.755
			c-0.741,0.544-1.472,1.096-2.188,1.678c-0.799,0.651-1.57,1.338-2.335,2.036c-0.674,0.616-1.348,1.227-1.993,1.877
			c-0.218,0.219-0.458,0.41-0.673,0.634c-4.07-0.73-7.035-4.268-7.041-8.404v-204.8c0.005-4.711,3.822-8.529,8.533-8.533h375.467
			c4.711,0.005,8.529,3.822,8.533,8.533V324.267z"/>
	</g>
</g>
<g>
	<g>
		<path d="M102.4,128H85.333c-4.713,0-8.533,3.82-8.533,8.533s3.82,8.533,8.533,8.533H102.4c4.713,0,8.533-3.82,8.533-8.533
			S107.113,128,102.4,128z"/>
	</g>
</g>
<g>
	<g>
		<path d="M204.8,128h-68.267c-4.713,0-8.533,3.82-8.533,8.533s3.82,8.533,8.533,8.533H204.8c4.713,0,8.533-3.82,8.533-8.533
			S209.513,128,204.8,128z"/>
	</g>
</g>
<g>
	<g>
		<path d="M337.567,191.671c-4.854-11.55-14.002-20.766-25.517-25.704c-11.949-5.068-25.441-5.082-37.4-0.037
			c-5.73,2.391-10.924,5.904-15.275,10.333c-1.203,1.211-2.331,2.496-3.376,3.846c-1.022-1.327-2.127-2.588-3.308-3.775
			c-4.34-4.439-9.525-7.964-15.25-10.367c-11.952-5.066-25.446-5.08-37.408-0.037c-5.726,2.395-10.916,5.908-15.267,10.333
			c-4.415,4.374-7.916,9.582-10.3,15.321c-5.067,12.02-5.067,25.576,0,37.596c0.136,0.312,0.289,0.617,0.458,0.912l1.275,2.208
			c0.291,0.501,0.632,0.971,1.017,1.404l69.133,77.688c4.723,5.329,12.872,5.821,18.202,1.098c0.385-0.341,0.749-0.705,1.09-1.089
			l69.142-77.696c0.385-0.433,0.726-0.903,1.017-1.404l1.275-2.208c0.169-0.296,0.322-0.6,0.458-0.912
			C342.589,217.19,342.601,203.669,337.567,191.671z M322.025,222.029L256,296.563l-65.45-73.55l-0.575-0.984
			c-3.065-7.662-2.984-16.223,0.225-23.825c3.154-7.452,9.075-13.392,16.517-16.571c7.69-3.25,16.371-3.237,24.05,0.038h0
			c3.691,1.552,7.032,3.831,9.825,6.7c3.146,3.458,5.69,7.42,7.525,11.721c1.804,4.354,6.796,6.421,11.15,4.617
			c2.09-0.866,3.751-2.527,4.617-4.617c1.85-4.329,4.416-8.316,7.592-11.792c2.804-2.86,6.153-5.127,9.85-6.667
			c7.687-3.25,16.365-3.237,24.042,0.037c7.432,3.202,13.334,9.159,16.467,16.621C325.01,205.872,325.079,214.398,322.025,222.029z"
			/>
	</g>
</g>
<g>
	<g>
		<path d="M110.251,346.621c-0.433-1.033-1.039-1.984-1.792-2.813c-2.472-2.385-6.118-3.089-9.3-1.796
			c-1.035,0.433-1.988,1.04-2.817,1.796c-0.772,0.814-1.38,1.769-1.792,2.813c-0.911,2.067-0.911,4.421,0,6.487
			c0.393,1.055,1.003,2.014,1.792,2.817c0.83,0.753,1.783,1.359,2.817,1.792c1.026,0.438,2.127,0.67,3.242,0.683
			c2.259-0.035,4.421-0.918,6.059-2.475c0.771-0.816,1.379-1.772,1.792-2.817C111.162,351.042,111.162,348.688,110.251,346.621z"/>
	</g>
</g>
<g>
	<g>
		<path d="M415.658,386.475c-0.406-0.368-0.834-0.711-1.283-1.025c-0.474-0.324-0.99-0.583-1.533-0.771
			c-0.51-0.258-1.059-0.43-1.625-0.508c-1.093-0.258-2.232-0.258-3.325,0c-0.534,0.091-1.051,0.263-1.533,0.508
			c-0.546,0.187-1.064,0.447-1.542,0.771c-0.446,0.315-0.872,0.657-1.275,1.025c-0.79,0.8-1.4,1.759-1.792,2.813
			c-0.481,1.013-0.715,2.125-0.683,3.246c0.03,2.26,0.914,4.424,2.475,6.059c3.365,3.3,8.752,3.3,12.117,0
			C418.958,395.227,418.958,389.84,415.658,386.475z"/>
	</g>
</g>
<g>
	<g>
		<path d="M307.2,366.933H204.8c-4.713,0-8.533,3.82-8.533,8.533S200.087,384,204.8,384h102.4c4.713,0,8.533-3.82,8.533-8.533
			S311.913,366.933,307.2,366.933z"/>
	</g>
</g>
<g>
	<g>
		<path d="M307.2,401.067H204.8c-4.713,0-8.533,3.821-8.533,8.533s3.82,8.533,8.533,8.533h102.4c4.713,0,8.533-3.82,8.533-8.533
			S311.913,401.067,307.2,401.067z"/>
	</g>
</g>
<g>
</g>
<g>
</g>
<g>
</g>
<g>
</g>
<g>
</g>
<g>
</g>
<g>
</g>
<g>
</g>
<g>
</g>
<g>
</g>
<g>
</g>
<g>
</g>
<g>
</g>
<g>
</g>
<g>
</g>
</svg>
